<?xml version="1.0" encoding="UTF-8"?>
<svg width="20px" height="25px" viewBox="0 0 20 25" version="1.1" xmlns="http://www.w3.org/2000/svg" xmlns:xlink="http://www.w3.org/1999/xlink">
    <title>F586A9CC-9D19-4329-A073-E4029B115C40@2x</title>
    <g id="Page-1" stroke="none" stroke-width="1" fill="none" fill-rule="evenodd">
        <g id="Web-Bookmarks" transform="translate(-1576.000000, -262.000000)" fill="#5305FF" fill-rule="nonzero" stroke="#5305FF">
            <g id="Group" transform="translate(1561.000000, 250.000000)">
                <g id="small-bookmark" transform="translate(16.444444, 13.222222)">
                    <path d="M17.4965035,0 L0.503496503,0 C0.225062937,0 0,0.211923547 0,0.473043631 L0,22.2637985 C0,22.453489 0.120335664,22.6247308 0.306125874,22.6989986 C0.491916084,22.7732665 0.707412587,22.735896 0.85241958,22.6043899 L9,15.233424 L17.1475804,22.6043899 C17.2427413,22.6909569 17.3686154,22.7368421 17.4965035,22.7368421 C17.562965,22.7368421 17.6304336,22.724543 17.6938741,22.6989986 C17.8796643,22.6247308 18,22.4530159 18,22.2637985 L18,0.473043631 C18,0.211923547 17.7744336,0 17.4965035,0 Z M16.993007,21.1516729 L9.34892308,14.2362481 C9.25174825,14.1477889 9.12587413,14.1037958 9,14.1037958 C8.87412587,14.1037958 8.74825175,14.1477889 8.65107692,14.2362481 L1.00699301,21.1516729 L1.00699301,0.946087261 L16.993007,0.946087261 L16.993007,21.1516729 Z" id="Shape"></path>
                </g>
            </g>
        </g>
    </g>
</svg>