<?xml version="1.0" encoding="UTF-8"?>
<svg width="105px" height="42px" viewBox="0 0 105 42" version="1.1" xmlns="http://www.w3.org/2000/svg" xmlns:xlink="http://www.w3.org/1999/xlink">
    <title>2464498E-E48B-44C9-B8AA-4C8F8357EDB6</title>
    <g id="Page-1" stroke="none" stroke-width="1" fill="none" fill-rule="evenodd">
        <g id="Web-News" transform="translate(-315.000000, -2355.000000)" fill="#FFFFFF">
            <g id="Group-2" transform="translate(0.000000, 2319.000000)">
                <g id="Group-12" transform="translate(315.000000, 36.000000)">
                    <g id="world" transform="translate(0.000000, 1.000000)" fill-rule="nonzero">
                        <path d="M36.8423437,8.92775 L36.2401562,9.11865625 L33.0331875,9.404375 L32.1273437,10.8509062 L31.4700625,10.6420625 L28.9178125,8.3409375 L28.5475312,7.14425 L28.0516875,5.868125 L26.4475625,4.42928125 L24.5551562,4.059 L24.5115937,4.925125 L26.3655625,6.73425 L27.2726875,7.8028125 L26.2528125,8.3358125 L25.4225625,8.09109375 L24.1784687,7.5721875 L24.22075,6.56896875 L22.5884375,5.89759375 L22.0464687,8.256375 L20.4013437,8.62921875 L20.5640625,9.9450625 L22.7075937,10.357625 L23.077875,8.25509375 L24.8472812,8.51646875 L25.6698437,8.99821875 L26.9895312,8.99821875 L27.8928125,10.8073438 L30.2874687,13.2365938 L30.1119375,14.180875 L28.1810937,13.934875 L24.8447187,15.6197188 L22.442375,18.50125 L22.12975,19.777375 L21.2674687,19.777375 L19.6607812,19.0368125 L18.1002187,19.777375 L18.4884375,21.4237813 L19.1675,20.6409375 L20.361625,20.6037813 L20.2783437,22.0823438 L21.2674687,22.3719063 L22.2553125,23.4814687 L23.8684062,23.0279063 L25.7108437,23.31875 L27.8505312,23.8940313 L28.9190937,24.0195938 L30.7307812,26.076 L34.2273125,28.1324063 L31.9659062,32.4527813 L29.5789375,33.5623438 L28.6730937,36.0313125 L25.2188437,38.3375625 L24.851125,39.6675 C33.6815,37.540625 40.2504687,29.6084063 40.2504687,20.1245938 C40.2479062,15.9823125 38.9922812,12.1270313 36.8423437,8.92775 Z" id="Path"></path>
                        <path d="M22.4410937,30.6436563 L20.9753437,27.926125 L22.3206562,25.12275 L20.9753437,24.7204375 L19.46475,23.2034375 L16.118125,22.452625 L15.0072812,20.1284375 L15.0072812,21.5083438 L14.5178437,21.5083438 L11.63375,17.5979688 L11.63375,14.385875 L9.5196875,10.9482813 L6.1628125,11.546625 L3.90140625,11.546625 L2.76365625,10.8009375 L4.2153125,9.650375 L2.7675,9.98478125 C1.0224375,12.9649688 0.005125,16.4230625 0.005125,20.1271562 C0.005125,31.2394375 9.01359375,40.25175 20.1271562,40.25175 C20.9830312,40.25175 21.82225,40.1761563 22.6525,40.0762188 L22.442375,37.638 C22.442375,37.638 23.3661562,34.0171875 23.3661562,33.8941875 C23.364875,33.7699063 22.4410937,30.6436563 22.4410937,30.6436563 Z" id="Path"></path>
                        <path d="M7.4825,6.48953125 L11.0571875,5.991125 L12.704875,5.08784375 L14.5588438,5.622125 L17.5210938,5.458125 L18.5358438,3.86296875 L20.0156875,4.10640625 L23.6095938,3.7694375 L24.6,2.6778125 L25.9965625,1.7450625 L27.97225,2.0423125 L28.6923125,1.93340625 C26.0900938,0.70853125 23.1944688,0 20.125875,0 C13.8797813,0 8.2948125,2.8469375 4.607375,7.31721875 L4.617625,7.31721875 L7.4825,6.48953125 Z M20.976625,2.0013125 L23.03175,0.86996875 L24.3514375,1.6323125 L22.4410938,3.08653125 L20.6165938,3.26975 L19.7953125,2.73675 L20.976625,2.0013125 Z M14.8894063,2.16659375 L15.7965313,2.5445625 L16.98425,2.16659375 L17.6312813,3.2876875 L14.8894063,4.00775 L13.570999,3.2364375 C13.5697188,3.2364375 14.8599375,2.4061875 14.8894063,2.16659375 Z" id="Shape"></path>
                    </g>
                    <text id="NEWS" font-family="Inter-Regular_Black, Inter" font-size="18" font-weight="700">
                        <tspan x="49" y="37">NEWS</tspan>
                    </text>
                    <text id="Global" font-family="Inter-Regular_Thin, Inter" font-size="16" font-weight="300">
                        <tspan x="49" y="16">Global</tspan>
                    </text>
                </g>
            </g>
        </g>
    </g>
</svg>