<?xml version="1.0" encoding="UTF-8"?>
<svg width="113px" height="45px" viewBox="0 0 113 45" version="1.1" xmlns="http://www.w3.org/2000/svg" xmlns:xlink="http://www.w3.org/1999/xlink">
    <title>B9149011-8B08-49F8-9A55-8A6BDEDD0FB0</title>
    <g id="Page-1" stroke="none" stroke-width="1" fill="none" fill-rule="evenodd">
        <g id="Web-News" transform="translate(-310.000000, -19.000000)" fill="#000000">
            <g id="Group-12" transform="translate(310.000000, 19.000000)">
                <g id="world" transform="translate(0.000000, 1.000000)" fill-rule="nonzero">
                    <path d="M39.538125,9.581 L38.891875,9.785875 L35.45025,10.0925 L34.478125,11.644875 L33.77275,11.42075 L31.03375,8.95125 L30.636375,7.667 L30.10425,6.2975 L28.38275,4.753375 L26.351875,4.356 L26.305125,5.2855 L28.29475,7.227 L29.26825,8.37375 L28.17375,8.94575 L27.28275,8.683125 L25.947625,8.12625 L25.993,7.049625 L24.24125,6.329125 L23.659625,8.8605 L21.894125,9.260625 L22.06875,10.67275 L24.369125,11.1155 L24.7665,8.859125 L26.665375,9.139625 L27.548125,9.656625 L28.964375,9.656625 L29.93375,11.598125 L32.503625,14.205125 L32.31525,15.2185 L30.243125,14.9545 L26.662625,16.762625 L24.0845,19.855 L23.749,21.2245 L22.823625,21.2245 L21.099375,20.42975 L19.424625,21.2245 L19.84125,22.991375 L20.57,22.15125 L21.8515,22.111375 L21.762125,23.698125 L22.823625,24.008875 L23.88375,25.199625 L25.614875,24.712875 L27.592125,25.025 L29.888375,25.642375 L31.035125,25.777125 L32.979375,27.984 L36.73175,30.190875 L34.304875,34.827375 L31.74325,36.018125 L30.771125,38.66775 L27.064125,41.14275 L26.6695,42.57 C36.146,40.2875 43.195625,31.774875 43.195625,21.597125 C43.192875,17.15175 41.845375,13.014375 39.538125,9.581 Z" id="Path"></path>
                    <path d="M24.083125,32.885875 L22.510125,29.9695 L23.953875,26.961 L22.510125,26.52925 L20.889,24.90125 L17.2975,24.0955 L16.105375,21.60125 L16.105375,23.082125 L15.580125,23.082125 L12.485,18.885625 L12.485,15.4385 L10.21625,11.749375 L6.61375,12.3915 L4.186875,12.3915 L2.965875,11.59125 L4.52375,10.3565 L2.97,10.715375 C1.09725,13.913625 0.0055,17.62475 0.0055,21.599875 C0.0055,33.52525 9.673125,43.197 21.599875,43.197 C22.518375,43.197 23.419,43.115875 24.31,43.008625 L24.0845,40.392 C24.0845,40.392 25.075875,36.50625 25.075875,36.37425 C25.0745,36.240875 24.083125,32.885875 24.083125,32.885875 Z" id="Path"></path>
                    <path d="M8.03,6.964375 L11.86625,6.4295 L13.6345,5.460125 L15.624125,6.0335 L18.803125,5.8575 L19.892125,4.145625 L21.48025,4.406875 L25.337125,4.04525 L26.4,2.87375 L27.89875,1.87275 L30.019,2.19175 L30.79175,2.074875 C27.999125,0.760375 24.891625,0 21.5985,0 C14.895375,0 8.90175,3.05525 4.9445,7.852625 L4.9555,7.852625 L8.03,6.964375 Z M22.5115,2.14775 L24.717,0.933625 L26.13325,1.75175 L24.083125,3.312375 L22.125125,3.509 L21.24375,2.937 L22.5115,2.14775 Z M15.978875,2.325125 L16.952375,2.73075 L18.227,2.325125 L18.921375,3.52825 L15.978875,4.301 L14.563999,3.47325 C14.562625,3.47325 15.94725,2.58225 15.978875,2.325125 Z" id="Shape"></path>
                </g>
                <text id="NEWS" font-family="Inter-Regular_Black, Inter" font-size="18" font-weight="700">
                    <tspan x="53" y="38">NEWS</tspan>
                </text>
                <text id="Global" font-family="Inter-Regular_Thin, Inter" font-size="16" font-weight="300">
                    <tspan x="53" y="16">Global</tspan>
                </text>
            </g>
        </g>
    </g>
</svg>