<?xml version="1.0" encoding="UTF-8"?>
<svg width="50px" height="50px" viewBox="0 0 50 50" version="1.1" xmlns="http://www.w3.org/2000/svg" xmlns:xlink="http://www.w3.org/1999/xlink">
    <title>4E7A9A7C-7869-4CBC-84F3-460C37B34331</title>
    <defs>
        <path d="M1558.00277,45 C1546.4034,45 1537,54.4033979 1537,66.0027657 C1537,77.5966021 1546.4034,87 1558.00277,87 C1569.5966,87 1579,77.5966021 1579,66.0027657 C1579,54.4033979 1569.5966,45 1558.00277,45 L1558.00277,45 Z M1565.98459,61.5499802 C1565.99012,61.7380482 1565.99565,61.9261162 1565.99565,62.1141841 C1565.99565,67.8723825 1561.71987,74.5156065 1553.90399,74.5156065 C1551.50336,74.5156065 1549.26867,73.7909917 1547.38799,72.5574872 C1547.71987,72.596207 1548.05729,72.6183327 1548.40024,72.6183327 C1550.39154,72.6183327 1552.22797,71.921375 1553.68273,70.7542473 C1551.81865,70.7155275 1550.25326,69.4598973 1549.71118,67.7285658 C1549.97116,67.7783485 1550.23667,67.8060055 1550.5077,67.8060055 C1550.90043,67.8060055 1551.32082,67.7506914 1551.67483,67.651126 C1549.72778,67.2528645 1548.3062,65.4883445 1548.3062,63.3753457 L1548.3062,63.325563 C1548.85934,63.6463848 1549.49546,63.8455156 1550.19241,63.8676412 C1549.04741,63.0877124 1548.27855,61.749111 1548.27855,60.239036 C1548.27855,59.4425128 1548.47768,58.690241 1548.84275,58.0485974 C1550.93915,60.6870802 1554.0644,62.4184117 1557.59897,62.6009482 C1557.52153,62.2801264 1557.48558,61.9482418 1557.48558,61.6108258 C1557.48558,59.2046622 1559.38672,57.2520743 1561.7326,57.2520743 C1562.95504,57.2520743 1564.06021,57.7775583 1564.83461,58.6238641 C1565.80261,58.4302647 1566.70976,58.070723 1567.53394,57.5673647 C1567.21865,58.5851442 1566.54326,59.4425128 1565.66377,59.9790597 C1566.52667,59.8739629 1567.34532,59.6416436 1568.10312,59.2931648 C1567.53892,60.1671276 1566.8143,60.9359937 1565.98459,61.5499802 L1565.98459,61.5499802 Z" id="path-1"></path>
        <filter x="-16.7%" y="-11.9%" width="133.3%" height="133.3%" filterUnits="objectBoundingBox" id="filter-2">
            <feOffset dx="0" dy="2" in="SourceAlpha" result="shadowOffsetOuter1"></feOffset>
            <feGaussianBlur stdDeviation="2" in="shadowOffsetOuter1" result="shadowBlurOuter1"></feGaussianBlur>
            <feColorMatrix values="0 0 0 0 0   0 0 0 0 0   0 0 0 0 0  0 0 0 0.123880026 0" type="matrix" in="shadowBlurOuter1"></feColorMatrix>
        </filter>
    </defs>
    <g id="Page-1" stroke="none" stroke-width="1" fill="none" fill-rule="evenodd">
        <g id="Web-News" transform="translate(-1533.000000, -2362.000000)">
            <g id="Twitter" transform="translate(0.000000, 2319.000000)">
                <use fill="black" fill-opacity="1" filter="url(#filter-2)" xlink:href="#path-1"></use>
                <use fill="#FFFFFF" fill-rule="evenodd" xlink:href="#path-1"></use>
            </g>
        </g>
    </g>
</svg>